<mxfile host="65bd71144e">
    <diagram id="hXXx2kvF8VAGRoxQGPl4" name="Page-1">
        <mxGraphModel dx="1050" dy="918" grid="1" gridSize="10" guides="1" tooltips="1" connect="1" arrows="1" fold="1" page="1" pageScale="1" pageWidth="827" pageHeight="1169" math="0" shadow="0">
            <root>
                <mxCell id="0"/>
                <mxCell id="1" parent="0"/>
                <mxCell id="35" style="edgeStyle=none;html=1;endArrow=none;endFill=0;fontSize=20;" parent="1" source="2" target="16" edge="1">
                    <mxGeometry relative="1" as="geometry"/>
                </mxCell>
                <mxCell id="36" style="edgeStyle=none;html=1;endArrow=none;endFill=0;fontSize=20;" parent="1" source="2" target="18" edge="1">
                    <mxGeometry relative="1" as="geometry"/>
                </mxCell>
                <mxCell id="37" style="edgeStyle=none;html=1;endArrow=none;endFill=0;fontSize=20;" parent="1" source="2" target="21" edge="1">
                    <mxGeometry relative="1" as="geometry"/>
                </mxCell>
                <mxCell id="38" style="edgeStyle=none;html=1;endArrow=none;endFill=0;fontSize=20;" parent="1" source="2" target="22" edge="1">
                    <mxGeometry relative="1" as="geometry"/>
                </mxCell>
                <mxCell id="39" style="edgeStyle=none;html=1;endArrow=none;endFill=0;fontSize=20;" parent="1" source="2" target="23" edge="1">
                    <mxGeometry relative="1" as="geometry"/>
                </mxCell>
                <mxCell id="2" value="User" style="shape=umlActor;verticalLabelPosition=bottom;verticalAlign=top;html=1;fontSize=20;" parent="1" vertex="1">
                    <mxGeometry x="30" y="295" width="60" height="100" as="geometry"/>
                </mxCell>
                <mxCell id="13" value="Digital Signature" style="swimlane;fontStyle=1;align=center;horizontal=1;startSize=30;collapsible=0;html=1;fontSize=20;" parent="1" vertex="1">
                    <mxGeometry x="273" y="40" width="537" height="780" as="geometry"/>
                </mxCell>
                <mxCell id="16" value="Generate private key" style="ellipse;whiteSpace=wrap;html=1;fontSize=20;" parent="13" vertex="1">
                    <mxGeometry x="21" y="50" width="240" height="80" as="geometry"/>
                </mxCell>
                <mxCell id="18" value="Generate public key" style="ellipse;whiteSpace=wrap;html=1;fontSize=20;" parent="13" vertex="1">
                    <mxGeometry x="30.5" y="150" width="220" height="80" as="geometry"/>
                </mxCell>
                <mxCell id="21" value="Generate digest" style="ellipse;whiteSpace=wrap;html=1;fontSize=20;" parent="13" vertex="1">
                    <mxGeometry x="46" y="270" width="190" height="70" as="geometry"/>
                </mxCell>
                <mxCell id="22" value="Sign" style="ellipse;whiteSpace=wrap;html=1;fontSize=20;" parent="13" vertex="1">
                    <mxGeometry x="78" y="410" width="125" height="60" as="geometry"/>
                </mxCell>
                <mxCell id="23" value="Verify" style="ellipse;whiteSpace=wrap;html=1;fontSize=20;" parent="13" vertex="1">
                    <mxGeometry x="65" y="635" width="152" height="60" as="geometry"/>
                </mxCell>
                <mxCell id="26" value="&amp;lt;&amp;lt;include&amp;gt;&amp;gt;" style="edgeStyle=none;html=1;endArrow=open;verticalAlign=bottom;dashed=1;labelBackgroundColor=none;fontSize=20;" parent="13" source="22" target="27" edge="1">
                    <mxGeometry width="160" relative="1" as="geometry">
                        <mxPoint x="130" y="220" as="sourcePoint"/>
                        <mxPoint x="220" y="190" as="targetPoint"/>
                    </mxGeometry>
                </mxCell>
                <mxCell id="27" value="Sign file" style="ellipse;whiteSpace=wrap;html=1;fontSize=20;" parent="13" vertex="1">
                    <mxGeometry x="334" y="340" width="179" height="62.5" as="geometry"/>
                </mxCell>
                <mxCell id="28" value="Sign digest" style="ellipse;whiteSpace=wrap;html=1;fontSize=20;" parent="13" vertex="1">
                    <mxGeometry x="334" y="460" width="179" height="70" as="geometry"/>
                </mxCell>
                <mxCell id="29" value="&amp;lt;&amp;lt;include&amp;gt;&amp;gt;" style="edgeStyle=none;html=1;endArrow=open;verticalAlign=bottom;dashed=1;labelBackgroundColor=none;fontSize=20;" parent="13" source="22" target="28" edge="1">
                    <mxGeometry width="160" relative="1" as="geometry">
                        <mxPoint x="100" y="230" as="sourcePoint"/>
                        <mxPoint x="260" y="230" as="targetPoint"/>
                    </mxGeometry>
                </mxCell>
                <mxCell id="31" value="&amp;lt;&amp;lt;include&amp;gt;&amp;gt;" style="edgeStyle=none;html=1;endArrow=open;verticalAlign=bottom;dashed=1;labelBackgroundColor=none;fontSize=20;" parent="13" source="23" target="32" edge="1">
                    <mxGeometry width="160" relative="1" as="geometry">
                        <mxPoint x="137.5046823978392" y="348.62766164065806" as="sourcePoint"/>
                        <mxPoint x="5.819999999999993" y="200" as="targetPoint"/>
                    </mxGeometry>
                </mxCell>
                <mxCell id="32" value="Verify file" style="ellipse;whiteSpace=wrap;html=1;fontSize=20;" parent="13" vertex="1">
                    <mxGeometry x="347" y="560" width="153" height="70" as="geometry"/>
                </mxCell>
                <mxCell id="33" value="Verify digest" style="ellipse;whiteSpace=wrap;html=1;fontSize=20;" parent="13" vertex="1">
                    <mxGeometry x="347" y="670" width="153" height="70" as="geometry"/>
                </mxCell>
                <mxCell id="34" value="&amp;lt;&amp;lt;include&amp;gt;&amp;gt;" style="edgeStyle=none;html=1;endArrow=open;verticalAlign=bottom;dashed=1;labelBackgroundColor=none;fontSize=20;" parent="13" source="23" target="33" edge="1">
                    <mxGeometry width="160" relative="1" as="geometry">
                        <mxPoint x="139.17240230046428" y="359.54805485915426" as="sourcePoint"/>
                        <mxPoint x="45.81999999999999" y="240" as="targetPoint"/>
                    </mxGeometry>
                </mxCell>
            </root>
        </mxGraphModel>
    </diagram>
</mxfile>